<?xml version="1.0" encoding="utf-8"?>
<!-- Generator: Adobe Illustrator 22.0.1, SVG Export Plug-In . SVG Version: 6.00 Build 0)  -->
<svg version="1.1" id="Camada_1" xmlns="http://www.w3.org/2000/svg" xmlns:xlink="http://www.w3.org/1999/xlink" x="0px" y="0px"
	 viewBox="0 0 250 250" style="enable-background:new 0 0 250 250;" xml:space="preserve">
<style type="text/css">
	.st0{fill:#333333;}
</style>
<g>
	<path class="st0" d="M207.5,56.7c-3.2-1.8-11.7-5.8-15.5-4.1c-0.8,0.3-1.4,0.9-1.9,1.6c-1.8-3.7-6.6-3.3-11.1-3.7
		c-0.8-0.1-1.5-0.1-2.1-0.2c1.1-3.7,2.2-8.8-2.2-10.3c-3.2-1.1-7.4-0.6-10.9-1.1c-3.7-0.5-7.6-2-11.4-2c-0.8,0-1.7,0.4-2,1.1
		c-0.9,1.8-1.1,4-1.3,6.1c-1.9-0.5-4-0.6-6.2-0.7C142,39,141.4,29,135.5,29c-7.4,0-16,0.5-23,3.1c-1,0.4-1.7,1.2-1.7,2.2
		c0,2.1,0.2,4.1,0.6,6.1c-3.1,0.2-7.2,1.7-9.4,2.1c-1.1,0.2-2.7,0.3-4.3,0.6c0.3-2.1,0.3-4.2-1-5.3c-0.9-0.8-2.2-0.8-3.4-0.9
		c-2.7-0.2-5.4-0.2-8.1-0.3c-3.3-0.1-8.6-1.5-11,1.5c-2.7,3.1-1.9,10.1-1.8,14c-0.4,0.1-0.8,0.2-1.1,0.3c-0.7,0.2-1.5,0.8-1.6,1.6
		c-0.8,5.3-0.9,10.6-0.9,15.9c-1-4-2-8.1-3.1-12.1c-2.1-7.8-5.6-6.5-13-5.3c-7.3,1.2-13.2,0.7-12.2,8.9c1.3,10.9,3.9,21.6,7.2,32.1
		c-1.2,0-2.4,0.1-3.5,0.1c-0.1,0-0.1,0-0.2,0c-0.1,0-0.2,0.1-0.3,0.1c-0.2,0-0.4,0.1-0.5,0.2c0,0-0.1,0-0.1,0
		c-4.3,2.2-3.6,4.8-3.6,9.2c-0.1,9,1.3,18.3,2.1,27.3c1.7,17.7,4.1,35.3,7.7,52.6c2.2,10.4,3.2,31.4,15.2,35.4
		c6.7,2.2,16.6,1.7,23.7,2.1c9.6,0.6,19.2,0.4,28.9,0c15.8-0.5,31.8,0.9,47.6-0.1c10.3-0.7,20.2-2.3,25.1-12.3
		c7.1-14.5,9-33.8,11.1-49.6c2.7-19.9,4-39.9,5.4-59.9c0.1-1.3-1.1-2.2-2.3-2.3c-0.8,0-1.6-0.1-2.3-0.1c2.9-9.2,5.6-18.5,7.9-27.9
		C210.5,63.4,212.5,59.4,207.5,56.7z M186,57c1.2,1.7,0.3,8.3,0,11.7c0,0.1,0,0.1,0,0.2c-0.1,0.4-0.1,0.7,0,1c0,0.1,0,0.2,0,0.3
		c-0.1,8.4-0.1,16.7-0.2,25.1c-4.7-0.3-9.4-0.5-14.1-0.7c-0.1-7.6-0.1-15.2,0.1-22.8c0.1-3.9,0-8,0.5-11.9c0.7-5.5,1.1-5.2,6.6-4.7
		C181.8,55.5,185,55.5,186,57z M167,94.4c-0.8,0-1.5-0.1-2.3-0.1c0.8-2.9,1.5-5.7,2.2-8.6C166.9,88.6,167,91.5,167,94.4z
		 M166.1,43.9c1.8,0.2,5.7-0.3,6.6,1.2c0.8,1.4-0.2,3.8-0.7,5.2c0,0.1,0,0.1,0,0.1c-2.4,0.5-3.7,2.2-4.1,6.6
		c-0.2,2.8-0.4,5.5-0.6,8.3c0,0.1-0.1,0.1-0.1,0.2c-3.1,9.3-4.4,19.1-7.2,28.6c-3.3-0.1-6.5-0.3-9.8-0.4c2.6-13.6,4.4-28.2,4.9-42
		c0.1-2.4-0.6-4-1.7-5.2c0-0.1,0.1-0.1,0.1-0.2c0.2-1.3,0.1-3.1,0.4-4.5C157.9,42.1,162.1,43.5,166.1,43.9z M149,62.2
		c-0.7,10.4-1.4,20.6-3.3,30.9c0,0.2,0,0.3,0,0.5c-4.8-0.2-9.6-0.3-14.3-0.4c1.3-6.6,2.7-13.2,4-19.8c1.1-5.2,4-12.6,3.6-18
		c-0.1-1.9-1-3.1-2.2-3.9v0c0.2-4.1,8.8-4.2,11.4-2.1C151.5,51.9,149.3,58.8,149,62.2z M116.4,70.5c0.5-3.1,0.9-6.2,1.3-9.3
		c0.2-1.5,0-5.3,0.9-6.5c0.7-0.9,0.4-0.1,2.2-0.5c1.9-0.4,7.6,0.3,9.4,0.9c5.2,1.7,2.9,6.4,2,10.7c-1.8,9-3.7,17.9-5.5,26.9
		c0,0.1,0,0.2,0,0.3c-4.9-0.1-9.8-0.2-14.7-0.2C113.7,85.4,115.3,78,116.4,70.5z M135.4,33.6c1.4,2.9,2.1,6.5,2.8,9.8
		c-1.1,0-2.1-0.1-3.1-0.2c-0.9-0.1-2.1,0.8-2.2,1.7c-0.4,2.5-0.5,3.5-0.6,5.5c-2.4-0.2-5.1,0-7.1-0.2c-2.7-0.3-5-0.8-6.8-0.5
		c-0.3-2.4-0.7-5-2-6.9c0-0.2,0-0.4,0-0.6c-0.5-2-0.7-4-0.8-6.1c4-1.2,8-1.5,12.3-1.7C130.3,34.2,132.9,33.6,135.4,33.6z
		 M114.1,52.5c0,0.2,0.1,0.4,0.2,0.6c-0.2,0.5-0.3,1-0.5,1.6c-2.8,12.4-3.6,25.3-6.5,37.7c0,0.1,0,0.3,0,0.4c-1.7,0-3.4,0-5.2,0
		c-1-11.2-2.4-22.4-4.2-33.5c-0.3-2.1-2.1-8.1-1.5-9.7c0.8-2,2.6-1.7,5-2.2C108.8,45.9,112.7,44.1,114.1,52.5z M77.4,43
		c0.3-2.5,0.9-2,3-2.1c1.6-0.1,3.3,0.1,4.9,0.2c2.5,0.1,5.2,0.4,7.7,0.3c0,0.1,0,0.2,0,0.3c-0.4,1.2-0.2,2.8-0.4,4.1c0,0,0,0,0,0
		c-1.5,3.2,0,8,0.5,10.9c2,11.9,3.6,23.8,4.6,35.8c-2.9,0-5.8,0-8.7,0c0.3-6.6,0.6-13.2,0.7-19.9c0.1-5.1,1.6-12.9-0.4-17.5
		c-1.6-3.6-7.2-4.4-12.1-4.1C77,48.6,77.1,45.8,77.4,43z M72.7,83.9c0.6-5.4,0.6-10.7,0.7-16.1c0.1-5.3-1-13.4,6.8-11.2
		c4.2,1.2,4.2,2.5,4.9,6.8c0.4,3.1,0,6.4,0,9.5c-0.1,6.6-0.3,13.2-0.7,19.9c-3.3,0-6.6,0.1-9.9,0.1c-0.7-2.7-1.3-5.4-2-8.1
		C72.6,84.5,72.7,84.2,72.7,83.9z M47,72.8c-0.5-2.6-1.6-6.3-1.6-9c0.1-6.1,3.4-6.7,8.5-6.9c7.2-0.2,7.5,2.6,8.9,8.1
		c0.8,3,1.5,6.1,2.3,9.1c1.6,6.2,3.1,12.5,4.7,18.7c-5.8,0.1-11.5,0.2-17.3,0.4C50.2,86.6,48.4,79.8,47,72.8z M198.5,137
		c-2,21.4-3.4,47.8-12.6,67.7c-7.8,16.9-34.6,10.9-49.8,10.9c-19.6,0-39,1.7-58.6-0.6c-6.2-0.7-12.7,0-17-6.3
		c-2.5-3.6-3.2-10.9-4.3-15.2c-2.5-9.8-4.4-19.7-6-29.6c-1.8-11.1-3.2-22.3-4.2-33.5c-0.4-4.3-5-28.8-1.1-32.3
		c42.6-1.5,85.2-1.1,127.8,1c5.9,0.3,11.7,0.6,17.6,1c7.9,0.5,9.8-0.9,10.6,7C201.8,116.6,199.4,127.6,198.5,137z M201.4,80.2
		c-1.5,5.3-3.1,10.5-4.7,15.7c-2.1-0.1-4.2-0.2-6.3-0.4c0-6.9,0.1-13.8,0.1-20.6c0-2.1,0.1-4.4,0.3-6.8c0.5-3.4,1.1-8.6,2.6-10.1
		c1.6-1.6,5.1,0.1,6.8,0.9c3.2,1.5,4.9,2.5,4.9,6.6C205.2,70.2,202.6,75.9,201.4,80.2z"/>
	<path class="st0" d="M123.3,119.6c-11.7,0.4-23.9,0.1-33.6,7.7c-8.3,6.5-13.7,17.1-13.7,27.7c0,29.3,38.6,30.2,59.2,29.7
		c11.1-0.2,22.3-2.2,29.6-11.3c5.6-7,10.9-18.8,8.9-27.9C169.1,124.5,141,119,123.3,119.6z M164.1,166.3
		c-6.3,11.1-16.9,13.5-28.8,13.8c-17.7,0.4-48,1.6-53.4-20.1c-2.7-11.1,1.8-22.3,11-29.1c8.9-6.7,19.8-6.3,30.4-6.7
		c14.7-0.5,27.8,1.7,39,12.1C171.4,144.8,169.8,156.2,164.1,166.3z"/>
	<path class="st0" d="M93.2,148.5c0.4-2.9-4.2-2.9-4.6,0c-0.9,7.3,0,14.5,5,20.2c2,2.3,5.2-1,3.3-3.3
		C92.8,160.6,92.5,154.4,93.2,148.5z"/>
	<path class="st0" d="M93.2,141.9c3,0,3-4.6,0-4.6C90.2,137.3,90.2,141.9,93.2,141.9z"/>
</g>
</svg>
