<?xml version="1.0" encoding="utf-8"?>
<!-- Generator: Adobe Illustrator 22.0.1, SVG Export Plug-In . SVG Version: 6.00 Build 0)  -->
<svg version="1.1" xmlns="http://www.w3.org/2000/svg" xmlns:xlink="http://www.w3.org/1999/xlink" x="0px" y="0px"
	 viewBox="0 0 1920 1080" style="enable-background:new 0 0 1920 1080;" xml:space="preserve">
<style type="text/css">
	._x005B_Default_x005D_{fill:#FFFFFF;stroke:#231F20;stroke-miterlimit:10;}
	.Drop_x0020_Shadow{fill:none;}
	.Round_x0020_Corners_x0020_2_x0020_pt{fill:#FFFFFF;stroke:#231F20;stroke-miterlimit:10;}
	.Live_x0020_Reflect_x0020_X{fill:none;}
	.Bevel_x0020_Soft{fill:url(#SVGID_1_);}
	.Dusk{fill:#FFFFFF;}
	.Foliage_GS{fill:#FFDD00;}
	.Pompadour_GS{fill-rule:evenodd;clip-rule:evenodd;fill:#44ADE2;}
	.st0{clip-path:url(#SVGID_3_);fill:url(#SVGID_4_);}
	.st1{opacity:0.57;clip-path:url(#SVGID_3_);}
	.st2{fill:url(#SVGID_5_);}
	.st3{fill:url(#SVGID_6_);}
	.st4{fill:url(#SVGID_7_);}
	.st5{fill:url(#SVGID_8_);}
	.st6{fill:url(#SVGID_9_);}
	.st7{fill:url(#SVGID_10_);}
	.st8{fill:url(#SVGID_11_);}
	.st9{fill:url(#SVGID_12_);}
	.st10{fill:#BCC8D6;}
	.st11{fill:#FFFFFF;}
	.st12{fill:#26364A;}
	.st13{fill:#2A9D8E;}
	.st14{fill:#33C1B1;}
	.st15{fill:#231F20;}
	.st16{fill:#264653;}
	.st17{fill:#335F70;}
	.st18{fill:#10131C;}
</style>
<linearGradient id="SVGID_1_" gradientUnits="userSpaceOnUse" x1="710" y1="290" x2="710.7071" y2="290.7071">
	<stop  offset="0" style="stop-color:#DEDFE3"/>
	<stop  offset="0.1783" style="stop-color:#DADBDF"/>
	<stop  offset="0.3611" style="stop-color:#CECFD3"/>
	<stop  offset="0.546" style="stop-color:#B9BCBF"/>
	<stop  offset="0.7324" style="stop-color:#9CA0A2"/>
	<stop  offset="0.9181" style="stop-color:#787D7E"/>
	<stop  offset="1" style="stop-color:#656B6C"/>
</linearGradient>
<g id="BACKGROUND">
	<g>
		<defs>
			<rect id="SVGID_2_" y="-503.1" width="1920" height="1920"/>
		</defs>
		<clipPath id="SVGID_3_">
			<use xlink:href="#SVGID_2_"  style="overflow:visible;"/>
		</clipPath>
		<linearGradient id="SVGID_4_" gradientUnits="userSpaceOnUse" x1="960" y1="1246.2494" x2="960" y2="-481.0326">
			<stop  offset="0" style="stop-color:#E4F3FF"/>
			<stop  offset="1" style="stop-color:#6FC1EE"/>
		</linearGradient>
		<rect y="-503.1" class="st0" width="1920" height="1920"/>
		<g class="st1">
			<g>
				<linearGradient id="SVGID_5_" gradientUnits="userSpaceOnUse" x1="344.7189" y1="995.798" x2="344.7189" y2="183.6958">
					<stop  offset="1.723000e-03" style="stop-color:#FFFFFF;stop-opacity:0"/>
					<stop  offset="0.9948" style="stop-color:#FFFFFF"/>
				</linearGradient>
				<path class="st2" d="M1091.9,896.2c-33.5,6.8-72.3,21.8-105.5,7.9c-33.3-14-42.5-57.7-80.7-66c-37.7-8.2-79.3,9.7-115,27.1
					c-5-95.7-118.5-87.6-180.5-66.2c-5.7-71.8-53.1-114-111.7-132.7c8.6-19.1,13.7-40.3,14.3-62.7c2.3-86-62.2-158.9-145.9-162.6
					c-13.3-0.6-26.3,0.6-38.8,3.4c-5.1-21-14.6-39.9-28.9-52c-61.4-51.8-137.1-38.2-171.8,0.3c23.5-29.8-1.4-80.2-19.7-97.9
					c-32.7-31.6-76.4-22.3-89.2-8.4C-10.5,167.9-252.1,126.1-275,303c-60.9-25.3-77.2,58-78.9,95.4c0.7-70.5-54.7-124.2-119.4-140.7
					v590.9c18.5-12.2,35.4-26.3,54.2-41.9c24.4-20.2,41.4-10.2,68-0.4c22.4,8.2,45.9,11.8,69.7,10.2c17.9-1.2,53.9-17.7,65.4-13.3
					c7.4,2.8,16.1,18.4,21.9,24c8.8,8.6,18.2,16.8,28,24.3c34.1,26.1,73.8,45,115.3,55.2c79.2,19.3,223.7,4.2,222.1-105.1
					c29.5,11.2,52.3,32.8,79.4,47.1c34.3,18.2,71.3,18.2,108.3,7.6c2.5,90.1,88.6,139.7,164.8,139.5
					c65.9-0.2,182.5-28.2,207.8-105.5c-19.6,77.8,151.9,73.5,186.8,73.2c46.1-0.4,91.8-3.4,136.7-4.3c22.5-0.4,44.9-0.7,67.1-1.2
					c15.7-0.4,33.7,0.4,38.7-21.3C1172.3,889.3,1117,891.2,1091.9,896.2z"/>
			</g>
			<g>
				<g>
					<linearGradient id="SVGID_6_" gradientUnits="userSpaceOnUse" x1="1664.9662" y1="977.4376" x2="1664.9662" y2="76.4994">
						<stop  offset="1.723000e-03" style="stop-color:#FFFFFF;stop-opacity:0"/>
						<stop  offset="0.9948" style="stop-color:#FFFFFF"/>
					</linearGradient>
					<path class="st3" d="M2638.7,292.9c-13.7-21.2-33.2-38.3-54.8-51.2c-5.5-3.2-11.1-6.2-16.8-8.9c-8.4-1-12.1-5.8-11.1-14.4
						c-7.3-12.9-9.8-25.8-20.2-37.5c-30.6-34.1-86.4-39.7-123.7-13.4c3.1-51.2-48.7-98.1-99.3-90.1c-49,7.8-82.8,64.9-67.8,111.8
						c-8.9-23.9-38.9-41.2-65.4-45.9c-19.2-26.9-51.1-44-86.6-42.5c-8.7,0.4-17,1.8-25,4.2c-34.9-24.1-83.9-26.7-116-22.8
						c-54.1,6.6-119.3,62.2-113.1,128.9c-96-24.3-164.8,43.4-140.6,130.3c-130.7-73.2-281.9,75.9-237.5,197.7
						c-62.6-3-120.5,56.6-115.8,119.1c-18.6-33.4-62.8-6.7-84.4,6.2c-18.3,10.9-34.7,17.3-56.4,15.7c-19.4-1.5-37.8-6.8-57.4-4.1
						c-64,9-117.7,74.8-107.6,139.8c-30.9-4.7-62.5,9.2-82.7,32.4c-7.5,8.6-12.7,33.2-19.8,39c-3.5,2.8-30.2,2-34.9,2.4
						c-11.6,0.9-23.2,1.9-34.8,3.1c-45.7,4.5-213.5,4.7-196.8,84.7c95.9,0.5,192-18.9,280.1-56.8c6.4,17.2,3.7,16.9,18.7,19.2
						c11,1.7,29.3-12.6,38.5-6.4c128.3,86.4,202.4-29.4,222.2-19.1c214.2,111.4,331.5-54.4,378.6-51.5
						c68.4,4.3,254.6-25.6,283.1-98.1c34.6,35.6,202.2-16.7,249.5-28.4c11.3-2.8,22.2-6.9,32.4-12.3c9-4.8,22.1-20.2,30.9-22.9
						c8-2.5,21.9,11.7,31.9,16.8c13,6.7,27.1,11.5,41.4,14.4c114.3,23,217.6-86,182.6-199.4c39.4,10.1,80.8-34.8,67.4-73.3
						c37.6,20,86.4,3.8,111.9-28.3C2670.9,391.7,2664.9,333.4,2638.7,292.9z"/>
				</g>
			</g>
			<linearGradient id="SVGID_7_" gradientUnits="userSpaceOnUse" x1="1620.8757" y1="1048.8899" x2="1564.7992" y2="810.0444">
				<stop  offset="0.1006" style="stop-color:#FFFFFF;stop-opacity:0"/>
				<stop  offset="0.9948" style="stop-color:#FFFFFF"/>
			</linearGradient>
			<path class="st4" d="M1255.2,1065.5c78.1,43.9,184.4,29.7,248.2-33.2c23.9,30.4,67.6,33.9,102.5,24.6
				c43.1-11.4,77.5-42.6,114.5-65.8c10.7-6.7,22.9-15.2,35.8-16.4c10.4-1,20.2,3.2,30.1,5.2c21.5,4.2,43.7,0.8,62.8-10
				c18.3-10.3,27-25.8,39.8-41.6c14.3-17.7,35.6-21.4,52.2-35.6c10.7-9.1,21.2-27.7,11.7-41.3c-11.7-16.8-36.1-4.8-52.4-8.5
				c-18.4-4.1-30.1-22.2-46.1-31c-18.2-10.1-37.8-10.9-57.8-7c-32.4,6.3-69.8,30-98.7,5.6c-32.9-27.8-70.7-42.4-113.5-48.8
				c-90.9-13.6-155.1,61.4-171.6,144c-28.5-18.2-56.4-11.6-84.4,5.4c-28.7,17.5-46.1,60.2-24.3,89.6
				C1274.6,997.1,1212.9,1041.6,1255.2,1065.5z"/>
			<linearGradient id="SVGID_8_" gradientUnits="userSpaceOnUse" x1="86.7434" y1="25.7748" x2="54.8246" y2="178.9849">
				<stop  offset="5.248000e-03" style="stop-color:#FFFFFF"/>
				<stop  offset="0.9983" style="stop-color:#FFFFFF;stop-opacity:0"/>
			</linearGradient>
			<path class="st5" d="M-363.7-56.9c5.7,51.5,21.6,125.1,63.9,144.7c26.4,12.2,54.4,20.9,83,25.7c26.1,4.3,56.2,1.7,78.7,17.8
				c21.6,15.5,35.2,36.9,60,48.8c22.5,10.8,48,15.3,72.8,13c11.4-1.1,22.8-3.5,33.6-7.5c2.6-1,13.6-7.8,15.8-7.1
				c2.3,0.8,9.8,14.9,12,17.3c15.6,16.2,38.2,24.3,60.1,27.4c29.9,4.2,60.2-0.6,90.2,1.2c25.6,1.5,45.8,13.4,67.1,26.6
				c41.5,25.7,90.2,34.9,138.9,32.9c11.4-0.5,21.9-3.3,33-4.9c13-1.9,27.5,4.7,41,5.3c39,1.9,24.9-79.7-31.5-102.5
				c-37.5-15.2-70.9-3-70.9-3c8.1-33.4-29.4-49.7-49.4-27.9c-4.3-44.1-58.1-75.3-98.4-56.3c25.5-53.3-1.1-125.6-55.4-149.2
				C124.5-79.2,52.1-45.4,33.2,12.4c10.9-33.9-26.1-73-60.5-62.8c7.4-51.6-31.4-105.8-83-114.4c-51.6-8.6-105.9,29.9-115.7,81.1
				c-9-33.1-44.8-56.1-78.6-51C-340.3-129.3-367.7-92.6-363.7-56.9z"/>
			<g>
				<linearGradient id="SVGID_9_" gradientUnits="userSpaceOnUse" x1="1130.4482" y1="471.9396" x2="1130.4482" y2="273.8289">
					<stop  offset="1.723000e-03" style="stop-color:#FFFFFF;stop-opacity:0"/>
					<stop  offset="0.9948" style="stop-color:#FFFFFF"/>
				</linearGradient>
				<path class="st6" d="M1265.3,396.7c-19,17.4-45.5,26-69.8,33.2c-21.6,6.4-44,10.7-66.6,10.3c-5.3-0.1-12.5-2.3-17.6-1.4
					c-3.7-2.1-5.5-1.1-5.3,2.8c-0.7,2.3-1.6,4.6-2.8,6.7c-4,7.7-10.5,14.2-18,18.4c-17.1,9.5-40.9,6.3-52.9-9.9
					c-10.2,15.8-36.4,14.6-48.1,1.3c-16.2-18.3-4.9-47.7,10.1-62.9c8.3-8.4,19.1-14.8,30.5-18c4.2-1.2,6.8-0.7,8.8-4
					c1.2-2,1.1-6.6,1.7-9c1.4-5.2,3.2-10.1,6.2-14.5c2.9-4.3,36.5-30.4,41.2-16.2c-13.6-41.1,44.7-60.1,74.4-59.6
					c17.1,0.2,36.5,4.3,49.4,16.3c12.2,11.3,17.3,31.1,7.4,45.5c16.4-18.8,48.2-20.2,63.7,0.5
					C1292.3,355.8,1281.6,381.7,1265.3,396.7z"/>
			</g>
			<linearGradient id="SVGID_10_" gradientUnits="userSpaceOnUse" x1="1570.1335" y1="100.1921" x2="1536.3239" y2="-140.2328">
				<stop  offset="1.723000e-03" style="stop-color:#FFFFFF;stop-opacity:0"/>
				<stop  offset="0.9948" style="stop-color:#FFFFFF"/>
			</linearGradient>
			<path class="st7" d="M1906.9-16.2c-27.2,25.4-73.7,25-108.1,31.9c-35.9,7.2-54.9,51.9-90.4,61.3c-74.8,19.6-145.1,59.4-278,62.8
				c-77.2,2-111.8,23.8-189.7,5.7c-21.9-5.1-46.7-6.6-36.5-39.6c8.7-28.2,17.9-47.4,53.5-64.8c35.1-17.2,60.7-6.2,60.7-6.2
				c16-40,61.5-28.1,61.4-18.6c-13.1-44.3,24.2-96.3,58.7-113.1c65.7-31.9,125.2-15.8,147.5-1.4c3.2-14.3,19.9-32.7,41.4-27.3
				c26.5,6.6,31.5,28.6,31.5,28.6s10.7-27.6,40.5-31c50.7-5.8,75,22.9,85.2,60.1c27-15.6,60.4-36.9,93-33.6
				C1915.1-97.7,1934.7-42.3,1906.9-16.2z"/>
			<g>
				<linearGradient id="SVGID_11_" gradientUnits="userSpaceOnUse" x1="70.8661" y1="1090.6697" x2="70.8661" y2="735.2043">
					<stop  offset="1.723000e-03" style="stop-color:#FFFFFF;stop-opacity:0"/>
					<stop  offset="0.9948" style="stop-color:#FFFFFF"/>
				</linearGradient>
				<path class="st8" d="M-398.5,1005c42.2,30.8,103.5,16.8,150.6,17.3c49.2,0.5,98.8,10.9,148,14.8
					c103.7,8.2,206.5,15.4,309.3,34.3c102.4,18.8,213.4,37.1,311.9-13.2c27.6-14.1,60.1-23.7,38.5-71.2
					c-18.4-40.6-35.3-67.3-86.6-83.5c-50.6-16-81.7,8.1-81.7,8.1c-30.9-56.5-88.2-25.1-85.7-10.6c6.4-71.6-55.6-140.2-105.3-155.7
					c-94.7-29.5-169.3,12.3-195.2,40.8c-7.8-20.9-34.3-44.1-61.4-29.7c-33.4,17.8-34.6,53-34.6,53s-20.9-39.1-61.1-35.6
					c-68.4,5.9-93.4,56.8-97.8,116.6c-39.5-16-88.9-38.8-131.1-24.3C-429.4,882.7-441.7,973.1-398.5,1005z"/>
			</g>
		</g>
	</g>
</g>
<g id="Poste">
	<g>
		<rect x="433.7" y="326.7" class="st10" width="31.1" height="1085.7"/>
		<rect x="433.7" y="326.7" class="st11" width="22" height="1085.7"/>
		<g>
			<polygon class="st12" points="464.8,1101 464.8,1056.1 433.7,1056.1 433.7,1096.8 			"/>
			<polygon class="st12" points="464.8,559.7 464.8,326.7 433.7,326.7 433.7,553.4 			"/>
			<path class="st12" d="M433.7,745.7v78.9l31.1,4.2v-88.1C454.4,742.1,444.1,743.9,433.7,745.7z"/>
		</g>
	</g>
</g>
<g id="Placa_Baixo">
	<g>
		<path class="st13" d="M846.3,596.2H60.8c-6.6,0-12-5.4-12-12v-96.4c0-6.6,5.4-12,12-12h785.6c6.6,0,12,5.4,12,12v96.4
			C858.3,590.8,852.9,596.2,846.3,596.2z"/>
		<path class="st14" d="M837.8,585.5H52.2c-6.6,0-12-5.4-12-12v-96.4c0-6.6,5.4-12,12-12h785.6c6.6,0,12,5.4,12,12v96.4
			C849.8,580.1,844.4,585.5,837.8,585.5z"/>
		<g>
			<path class="st15" d="M86.9,523.2H74v9.6h15.1v4.3H68.5v-31.3h20.5v4.4H74v8.6h13V523.2z"/>
			<path class="st15" d="M106.4,530.9c0-0.9-0.4-1.6-1.2-2.1c-0.8-0.5-2.1-0.9-3.8-1.3c-1.8-0.4-3.3-0.8-4.5-1.4
				c-2.6-1.3-3.9-3.1-3.9-5.5c0-2,0.9-3.7,2.6-5c1.7-1.3,3.9-2,6.5-2c2.8,0,5.1,0.7,6.8,2.1c1.7,1.4,2.6,3.2,2.6,5.3h-5.3
				c0-1-0.4-1.8-1.1-2.5c-0.8-0.7-1.7-1-3-1c-1.2,0-2.1,0.3-2.8,0.8c-0.7,0.5-1.1,1.2-1.1,2.1c0,0.8,0.3,1.4,1,1.9
				c0.7,0.4,2.1,0.9,4.1,1.3c2.1,0.5,3.7,1,4.9,1.6c1.2,0.6,2.1,1.4,2.6,2.2c0.6,0.9,0.9,1.9,0.9,3.2c0,2.1-0.9,3.8-2.6,5.1
				c-1.7,1.3-4,1.9-6.9,1.9c-1.9,0-3.6-0.3-5.1-1c-1.5-0.7-2.7-1.6-3.5-2.8s-1.3-2.5-1.3-3.9h5.1c0.1,1.2,0.5,2.2,1.4,2.8s2,1,3.4,1
				c1.4,0,2.4-0.3,3.2-0.8C106,532.4,106.4,531.7,106.4,530.9z"/>
			<path class="st15" d="M123,508.3v5.7h4.1v3.9H123v13c0,0.9,0.2,1.5,0.5,1.9c0.4,0.4,1,0.6,1.9,0.6c0.6,0,1.2-0.1,1.8-0.2v4
				c-1.2,0.3-2.4,0.5-3.5,0.5c-4,0-6.1-2.2-6.1-6.6v-13.2h-3.9V514h3.9v-5.7H123z"/>
			<path class="st15" d="M145.4,537.2c-0.2-0.4-0.4-1.2-0.6-2.2c-1.7,1.7-3.7,2.6-6.2,2.6c-2.4,0-4.3-0.7-5.8-2
				c-1.5-1.3-2.2-3-2.2-4.9c0-2.5,0.9-4.4,2.8-5.7c1.9-1.3,4.5-2,8-2h3.2v-1.5c0-1.2-0.3-2.2-1-2.9c-0.7-0.7-1.7-1.1-3.1-1.1
				c-1.2,0-2.2,0.3-2.9,0.9c-0.8,0.6-1.1,1.4-1.1,2.3h-5.3c0-1.3,0.4-2.5,1.3-3.6c0.9-1.1,2-2,3.5-2.6c1.5-0.6,3.1-0.9,4.9-0.9
				c2.7,0,4.9,0.7,6.6,2.1c1.6,1.4,2.5,3.3,2.5,5.8v10.5c0,2.1,0.3,3.8,0.9,5v0.4H145.4z M139.6,533.4c1,0,2-0.3,2.9-0.8
				c0.9-0.5,1.6-1.2,2.1-2v-4.4h-2.8c-1.9,0-3.4,0.3-4.4,1c-1,0.7-1.5,1.6-1.5,2.9c0,1,0.3,1.8,1,2.4
				C137.5,533.1,138.4,533.4,139.6,533.4z M142.5,504.2h6l-6,6.5l-4.2,0L142.5,504.2z"/>
			<path class="st15" d="M168.7,530.9c0-0.9-0.4-1.6-1.2-2.1c-0.8-0.5-2.1-0.9-3.8-1.3c-1.8-0.4-3.3-0.8-4.5-1.4
				c-2.6-1.3-3.9-3.1-3.9-5.5c0-2,0.9-3.7,2.6-5c1.7-1.3,3.9-2,6.5-2c2.8,0,5.1,0.7,6.8,2.1c1.7,1.4,2.6,3.2,2.6,5.3h-5.3
				c0-1-0.4-1.8-1.1-2.5c-0.8-0.7-1.7-1-3-1c-1.2,0-2.1,0.3-2.8,0.8c-0.7,0.5-1.1,1.2-1.1,2.1c0,0.8,0.3,1.4,1,1.9
				c0.7,0.4,2.1,0.9,4.1,1.3c2.1,0.5,3.7,1,4.9,1.6c1.2,0.6,2.1,1.4,2.6,2.2c0.6,0.9,0.9,1.9,0.9,3.2c0,2.1-0.9,3.8-2.6,5.1
				c-1.7,1.3-4,1.9-6.9,1.9c-1.9,0-3.6-0.3-5.1-1c-1.5-0.7-2.7-1.6-3.5-2.8s-1.3-2.5-1.3-3.9h5.1c0.1,1.2,0.5,2.2,1.4,2.8s2,1,3.4,1
				c1.4,0,2.4-0.3,3.2-0.8C168.3,532.4,168.7,531.7,168.7,530.9z"/>
			<path class="st15" d="M199.6,533.5c1.3,0,2.4-0.4,3.3-1.1c0.9-0.8,1.3-1.7,1.4-2.8h5c-0.1,1.4-0.5,2.8-1.4,4
				c-0.9,1.3-2,2.2-3.5,3c-1.5,0.7-3,1.1-4.7,1.1c-3.3,0-5.9-1.1-7.8-3.2c-1.9-2.1-2.9-5-2.9-8.7v-0.5c0-3.5,1-6.4,2.9-8.5
				c1.9-2.1,4.5-3.2,7.8-3.2c2.8,0,5.1,0.8,6.8,2.4s2.7,3.7,2.8,6.3h-5c-0.1-1.3-0.5-2.4-1.4-3.3c-0.9-0.9-2-1.3-3.3-1.3
				c-1.7,0-3,0.6-3.9,1.8c-0.9,1.2-1.4,3.1-1.4,5.6v0.8c0,2.5,0.5,4.4,1.4,5.6C196.5,532.8,197.8,533.5,199.6,533.5z"/>
			<path class="st15" d="M212.4,525.4c0-2.3,0.5-4.3,1.4-6.2s2.2-3.2,3.8-4.2c1.6-1,3.5-1.5,5.7-1.5c3.2,0,5.7,1,7.7,3
				c2,2,3,4.7,3.2,8l0,1.2c0,2.3-0.4,4.3-1.3,6.1c-0.9,1.8-2.2,3.2-3.8,4.2s-3.6,1.5-5.7,1.5c-3.3,0-6-1.1-7.9-3.3
				c-2-2.2-3-5.1-3-8.7V525.4z M217.7,525.8c0,2.4,0.5,4.3,1.5,5.6c1,1.4,2.4,2,4.2,2s3.2-0.7,4.1-2.1c1-1.4,1.5-3.4,1.5-6
				c0-2.3-0.5-4.2-1.5-5.6c-1-1.4-2.4-2.1-4.1-2.1c-1.7,0-3.1,0.7-4.1,2C218.2,521.1,217.7,523.1,217.7,525.8z"/>
			<path class="st15" d="M243.8,514l0.2,2.4c1.6-1.9,3.9-2.9,6.8-2.9c3.1,0,5.3,1.2,6.4,3.6c1.7-2.4,4.1-3.6,7.2-3.6
				c2.6,0,4.5,0.7,5.8,2.1s1.9,3.5,1.9,6.3v15.3h-5.3v-15.1c0-1.5-0.3-2.6-1-3.2c-0.6-0.7-1.7-1-3.2-1c-1.2,0-2.2,0.3-2.9,1
				c-0.8,0.6-1.3,1.5-1.6,2.5l0,15.9h-5.3v-15.3c-0.1-2.7-1.5-4.1-4.2-4.1c-2.1,0-3.6,0.9-4.5,2.6v16.8h-5.3V514H243.8z"/>
			<path class="st15" d="M290.8,537.2v-19.4h-3.6V514h3.6v-2.1c0-2.6,0.7-4.6,2.2-6c1.4-1.4,3.5-2.1,6.1-2.1c0.9,0,1.9,0.1,2.9,0.4
				l-0.1,4.1c-0.6-0.1-1.2-0.2-2-0.2c-2.5,0-3.8,1.3-3.8,3.8v2.1h4.8v3.9h-4.8v19.4H290.8z"/>
			<path class="st15" d="M303.9,525.4c0-2.3,0.5-4.3,1.4-6.2s2.2-3.2,3.8-4.2c1.6-1,3.5-1.5,5.7-1.5c3.2,0,5.7,1,7.7,3
				c2,2,3,4.7,3.2,8l0,1.2c0,2.3-0.4,4.3-1.3,6.1c-0.9,1.8-2.2,3.2-3.8,4.2s-3.6,1.5-5.7,1.5c-3.3,0-6-1.1-7.9-3.3
				c-2-2.2-3-5.1-3-8.7V525.4z M309.2,525.8c0,2.4,0.5,4.3,1.5,5.6c1,1.4,2.4,2,4.2,2s3.2-0.7,4.1-2.1c1-1.4,1.5-3.4,1.5-6
				c0-2.3-0.5-4.2-1.5-5.6c-1-1.4-2.4-2.1-4.1-2.1c-1.7,0-3.1,0.7-4.1,2C309.7,521.1,309.2,523.1,309.2,525.8z"/>
			<path class="st15" d="M335.3,514l0.2,2.4c1.6-1.9,3.9-2.9,6.8-2.9c3.1,0,5.3,1.2,6.4,3.6c1.7-2.4,4.1-3.6,7.2-3.6
				c2.6,0,4.5,0.7,5.8,2.1s1.9,3.5,1.9,6.3v15.3h-5.3v-15.1c0-1.5-0.3-2.6-1-3.2c-0.6-0.7-1.7-1-3.2-1c-1.2,0-2.2,0.3-2.9,1
				c-0.8,0.6-1.3,1.5-1.6,2.5l0,15.9h-5.3v-15.3c-0.1-2.7-1.5-4.1-4.2-4.1c-2.1,0-3.6,0.9-4.5,2.6v16.8h-5.3V514H335.3z"/>
			<path class="st15" d="M379.5,537.6c-3.3,0-6-1-8.1-3.1c-2.1-2.1-3.1-4.9-3.1-8.3v-0.6c0-2.3,0.5-4.4,1.4-6.2
				c0.9-1.8,2.2-3.2,3.8-4.3c1.6-1,3.5-1.5,5.5-1.5c3.2,0,5.7,1,7.4,3s2.6,4.9,2.6,8.6v2.1h-15.3c0.2,1.9,0.8,3.4,1.9,4.6
				c1.1,1.1,2.6,1.7,4.3,1.7c2.4,0,4.4-1,5.9-2.9l2.8,2.7c-0.9,1.4-2.2,2.5-3.8,3.2S381.5,537.6,379.5,537.6z M378.9,517.7
				c-1.4,0-2.6,0.5-3.5,1.5c-0.9,1-1.5,2.4-1.7,4.2h10V523c-0.1-1.7-0.6-3.1-1.4-4C381.5,518.2,380.3,517.7,378.9,517.7z"/>
			<path class="st15" d="M398.1,528c0-1.9,0.2-3.4,0.7-4.6s1.4-2.4,2.8-3.7c1.4-1.4,2.3-2.3,2.7-2.9c0.6-0.9,0.9-1.8,0.9-2.8
				c0-1.3-0.3-2.4-1-3.1c-0.7-0.7-1.7-1.1-3-1.1c-1.2,0-2.2,0.3-3,1c-0.8,0.7-1.1,1.6-1.1,2.8h-5.3c0-2.5,0.9-4.5,2.6-6
				c1.7-1.5,4-2.2,6.8-2.2c2.9,0,5.2,0.7,6.8,2.2s2.4,3.5,2.4,6.1c0,2.3-1.1,4.6-3.3,6.9l-2.7,2.6c-1,1.1-1.4,2.6-1.5,4.7H398.1z
				 M397.7,534.7c0-0.8,0.3-1.5,0.8-2c0.5-0.5,1.3-0.8,2.2-0.8c0.9,0,1.7,0.3,2.2,0.8c0.5,0.5,0.8,1.2,0.8,2c0,0.8-0.3,1.4-0.8,2
				c-0.5,0.5-1.3,0.8-2.2,0.8c-1,0-1.7-0.3-2.2-0.8C398,536.1,397.7,535.5,397.7,534.7z"/>
			<path class="st15" d="M445.2,523.2h-13v9.6h15.1v4.3h-20.6v-31.3h20.5v4.4h-15v8.6h13V523.2z"/>
			<path class="st15" d="M464.7,530.9c0-0.9-0.4-1.6-1.2-2.1c-0.8-0.5-2.1-0.9-3.8-1.3c-1.8-0.4-3.3-0.8-4.5-1.4
				c-2.6-1.3-3.9-3.1-3.9-5.5c0-2,0.9-3.7,2.6-5c1.7-1.3,3.9-2,6.5-2c2.8,0,5.1,0.7,6.8,2.1c1.7,1.4,2.6,3.2,2.6,5.3h-5.3
				c0-1-0.4-1.8-1.1-2.5c-0.8-0.7-1.7-1-3-1c-1.2,0-2.1,0.3-2.8,0.8c-0.7,0.5-1.1,1.2-1.1,2.1c0,0.8,0.3,1.4,1,1.9
				c0.7,0.4,2.1,0.9,4.1,1.3c2.1,0.5,3.7,1,4.9,1.6c1.2,0.6,2.1,1.4,2.6,2.2c0.6,0.9,0.9,1.9,0.9,3.2c0,2.1-0.9,3.8-2.6,5.1
				c-1.7,1.3-4,1.9-6.9,1.9c-1.9,0-3.6-0.3-5.1-1c-1.5-0.7-2.7-1.6-3.5-2.8s-1.3-2.5-1.3-3.9h5.1c0.1,1.2,0.5,2.2,1.4,2.8s2,1,3.4,1
				c1.4,0,2.4-0.3,3.2-0.8C464.4,532.4,464.7,531.7,464.7,530.9z"/>
			<path class="st15" d="M481.3,508.3v5.7h4.1v3.9h-4.1v13c0,0.9,0.2,1.5,0.5,1.9c0.4,0.4,1,0.6,1.9,0.6c0.6,0,1.2-0.1,1.8-0.2v4
				c-1.2,0.3-2.4,0.5-3.5,0.5c-4,0-6.1-2.2-6.1-6.6v-13.2h-3.9V514h3.9v-5.7H481.3z"/>
			<path class="st15" d="M503.7,537.2c-0.2-0.4-0.4-1.2-0.6-2.2c-1.7,1.7-3.7,2.6-6.2,2.6c-2.4,0-4.3-0.7-5.8-2
				c-1.5-1.3-2.2-3-2.2-4.9c0-2.5,0.9-4.4,2.8-5.7c1.9-1.3,4.5-2,8-2h3.2v-1.5c0-1.2-0.3-2.2-1-2.9c-0.7-0.7-1.7-1.1-3.1-1.1
				c-1.2,0-2.2,0.3-2.9,0.9c-0.8,0.6-1.1,1.4-1.1,2.3h-5.3c0-1.3,0.4-2.5,1.3-3.6c0.9-1.1,2-2,3.5-2.6c1.5-0.6,3.1-0.9,4.9-0.9
				c2.7,0,4.9,0.7,6.6,2.1c1.6,1.4,2.5,3.3,2.5,5.8v10.5c0,2.1,0.3,3.8,0.9,5v0.4H503.7z M497.9,533.4c1,0,2-0.3,2.9-0.8
				c0.9-0.5,1.6-1.2,2.1-2v-4.4h-2.8c-1.9,0-3.4,0.3-4.4,1c-1,0.7-1.5,1.6-1.5,2.9c0,1,0.3,1.8,1,2.4
				C495.9,533.1,496.8,533.4,497.9,533.4z M500.8,504.2h6l-6,6.5l-4.2,0L500.8,504.2z"/>
			<path class="st15" d="M527,530.9c0-0.9-0.4-1.6-1.2-2.1c-0.8-0.5-2.1-0.9-3.8-1.3c-1.8-0.4-3.3-0.8-4.5-1.4
				c-2.6-1.3-3.9-3.1-3.9-5.5c0-2,0.9-3.7,2.6-5c1.7-1.3,3.9-2,6.5-2c2.8,0,5.1,0.7,6.8,2.1c1.7,1.4,2.6,3.2,2.6,5.3h-5.3
				c0-1-0.4-1.8-1.1-2.5c-0.8-0.7-1.7-1-3-1c-1.2,0-2.1,0.3-2.8,0.8c-0.7,0.5-1.1,1.2-1.1,2.1c0,0.8,0.3,1.4,1,1.9
				c0.7,0.4,2.1,0.9,4.1,1.3c2.1,0.5,3.7,1,4.9,1.6c1.2,0.6,2.1,1.4,2.6,2.2c0.6,0.9,0.9,1.9,0.9,3.2c0,2.1-0.9,3.8-2.6,5.1
				c-1.7,1.3-4,1.9-6.9,1.9c-1.9,0-3.6-0.3-5.1-1c-1.5-0.7-2.7-1.6-3.5-2.8s-1.3-2.5-1.3-3.9h5.1c0.1,1.2,0.5,2.2,1.4,2.8s2,1,3.4,1
				c1.4,0,2.4-0.3,3.2-0.8C526.7,532.4,527,531.7,527,530.9z"/>
			<path class="st15" d="M553.2,514l0.2,2.7c1.7-2.1,4-3.1,6.8-3.1c4.9,0,7.4,2.8,7.5,8.3v15.4h-5.3v-15.1c0-1.5-0.3-2.6-1-3.3
				c-0.6-0.7-1.7-1.1-3.2-1.1c-2.1,0-3.7,1-4.7,2.9v16.5h-5.3V514H553.2z"/>
			<path class="st15" d="M572.2,525.4c0-2.3,0.5-4.3,1.4-6.2s2.2-3.2,3.8-4.2c1.6-1,3.5-1.5,5.7-1.5c3.2,0,5.7,1,7.7,3
				c2,2,3,4.7,3.2,8l0,1.2c0,2.3-0.4,4.3-1.3,6.1c-0.9,1.8-2.2,3.2-3.8,4.2s-3.6,1.5-5.7,1.5c-3.3,0-6-1.1-7.9-3.3
				c-2-2.2-3-5.1-3-8.7V525.4z M577.4,525.8c0,2.4,0.5,4.3,1.5,5.6c1,1.4,2.4,2,4.2,2s3.2-0.7,4.1-2.1c1-1.4,1.5-3.4,1.5-6
				c0-2.3-0.5-4.2-1.5-5.6c-1-1.4-2.4-2.1-4.1-2.1c-1.7,0-3.1,0.7-4.1,2C577.9,521.1,577.4,523.1,577.4,525.8z"/>
			<path class="st15" d="M623,530.9c0-0.9-0.4-1.6-1.2-2.1c-0.8-0.5-2.1-0.9-3.8-1.3c-1.8-0.4-3.3-0.8-4.5-1.4
				c-2.6-1.3-3.9-3.1-3.9-5.5c0-2,0.9-3.7,2.6-5c1.7-1.3,3.9-2,6.5-2c2.8,0,5.1,0.7,6.8,2.1c1.7,1.4,2.6,3.2,2.6,5.3h-5.3
				c0-1-0.4-1.8-1.1-2.5c-0.8-0.7-1.7-1-3-1c-1.2,0-2.1,0.3-2.8,0.8c-0.7,0.5-1.1,1.2-1.1,2.1c0,0.8,0.3,1.4,1,1.9
				c0.7,0.4,2.1,0.9,4.1,1.3c2.1,0.5,3.7,1,4.9,1.6c1.2,0.6,2.1,1.4,2.6,2.2c0.6,0.9,0.9,1.9,0.9,3.2c0,2.1-0.9,3.8-2.6,5.1
				c-1.7,1.3-4,1.9-6.9,1.9c-1.9,0-3.6-0.3-5.1-1c-1.5-0.7-2.7-1.6-3.5-2.8s-1.3-2.5-1.3-3.9h5.1c0.1,1.2,0.5,2.2,1.4,2.8s2,1,3.4,1
				c1.4,0,2.4-0.3,3.2-0.8C622.7,532.4,623,531.7,623,530.9z"/>
			<path class="st15" d="M638.7,537.2h-5.3V514h5.3V537.2z M637.7,504.4h6l-6,6.5l-4.2,0L637.7,504.4z"/>
			<path class="st15" d="M651.5,508.3v5.7h4.1v3.9h-4.1v13c0,0.9,0.2,1.5,0.5,1.9c0.4,0.4,1,0.6,1.9,0.6c0.6,0,1.2-0.1,1.8-0.2v4
				c-1.2,0.3-2.4,0.5-3.5,0.5c-4,0-6.1-2.2-6.1-6.6v-13.2h-3.9V514h3.9v-5.7H651.5z"/>
			<path class="st15" d="M659.9,507.9c0-0.8,0.3-1.5,0.8-2c0.5-0.5,1.2-0.8,2.2-0.8c1,0,1.7,0.3,2.2,0.8c0.5,0.5,0.8,1.2,0.8,2
				c0,0.8-0.3,1.4-0.8,2c-0.5,0.5-1.3,0.8-2.2,0.8c-1,0-1.7-0.3-2.2-0.8C660.1,509.4,659.9,508.7,659.9,507.9z M665.5,537.2h-5.3
				V514h5.3V537.2z"/>
			<path class="st15" d="M670.4,525.4c0-2.3,0.5-4.3,1.4-6.2s2.2-3.2,3.8-4.2c1.6-1,3.5-1.5,5.7-1.5c3.2,0,5.7,1,7.7,3
				c2,2,3,4.7,3.2,8l0,1.2c0,2.3-0.4,4.3-1.3,6.1c-0.9,1.8-2.2,3.2-3.8,4.2s-3.6,1.5-5.7,1.5c-3.3,0-6-1.1-7.9-3.3
				c-2-2.2-3-5.1-3-8.7V525.4z M675.7,525.8c0,2.4,0.5,4.3,1.5,5.6c1,1.4,2.4,2,4.2,2s3.2-0.7,4.1-2.1c1-1.4,1.5-3.4,1.5-6
				c0-2.3-0.5-4.2-1.5-5.6c-1-1.4-2.4-2.1-4.1-2.1c-1.7,0-3.1,0.7-4.1,2C676.2,521.1,675.7,523.1,675.7,525.8z"/>
			<path class="st15" d="M717.8,533.5c1.3,0,2.4-0.4,3.3-1.1c0.9-0.8,1.3-1.7,1.4-2.8h5c-0.1,1.4-0.5,2.8-1.4,4
				c-0.9,1.3-2,2.2-3.5,3c-1.5,0.7-3,1.1-4.7,1.1c-3.3,0-5.9-1.1-7.8-3.2c-1.9-2.1-2.9-5-2.9-8.7v-0.5c0-3.5,1-6.4,2.9-8.5
				c1.9-2.1,4.5-3.2,7.8-3.2c2.8,0,5.1,0.8,6.8,2.4s2.7,3.7,2.8,6.3h-5c-0.1-1.3-0.5-2.4-1.4-3.3c-0.9-0.9-2-1.3-3.3-1.3
				c-1.7,0-3,0.6-3.9,1.8c-0.9,1.2-1.4,3.1-1.4,5.6v0.8c0,2.5,0.5,4.4,1.4,5.6C714.7,532.8,716,533.5,717.8,533.5z"/>
			<path class="st15" d="M741.9,537.6c-3.3,0-6-1-8.1-3.1c-2.1-2.1-3.1-4.9-3.1-8.3v-0.6c0-2.3,0.5-4.4,1.4-6.2
				c0.9-1.8,2.2-3.2,3.8-4.3c1.6-1,3.5-1.5,5.5-1.5c3.2,0,5.7,1,7.4,3s2.6,4.9,2.6,8.6v2.1H736c0.2,1.9,0.8,3.4,1.9,4.6
				c1.1,1.1,2.6,1.7,4.3,1.7c2.4,0,4.4-1,5.9-2.9l2.8,2.7c-0.9,1.4-2.2,2.5-3.8,3.2S743.9,537.6,741.9,537.6z M741.3,517.7
				c-1.4,0-2.6,0.5-3.5,1.5c-0.9,1-1.5,2.4-1.7,4.2h10V523c-0.1-1.7-0.6-3.1-1.4-4C743.9,518.2,742.7,517.7,741.3,517.7z"/>
			<path class="st15" d="M767.9,518.7c-0.7-0.1-1.4-0.2-2.1-0.2c-2.4,0-4,0.9-4.9,2.8v15.9h-5.3V514h5l0.1,2.6c1.3-2,3-3,5.3-3
				c0.8,0,1.4,0.1,1.9,0.3L767.9,518.7z"/>
			<path class="st15" d="M779.1,508.3v5.7h4.1v3.9h-4.1v13c0,0.9,0.2,1.5,0.5,1.9c0.4,0.4,1,0.6,1.9,0.6c0.6,0,1.2-0.1,1.8-0.2v4
				c-1.2,0.3-2.4,0.5-3.5,0.5c-4,0-6.1-2.2-6.1-6.6v-13.2H770V514h3.9v-5.7H779.1z"/>
			<path class="st15" d="M785.9,525.4c0-2.3,0.5-4.3,1.4-6.2s2.2-3.2,3.8-4.2c1.6-1,3.5-1.5,5.7-1.5c3.2,0,5.7,1,7.7,3
				c2,2,3,4.7,3.2,8l0,1.2c0,2.3-0.4,4.3-1.3,6.1c-0.9,1.8-2.2,3.2-3.8,4.2s-3.6,1.5-5.7,1.5c-3.3,0-6-1.1-7.9-3.3
				c-2-2.2-3-5.1-3-8.7V525.4z M791.1,525.8c0,2.4,0.5,4.3,1.5,5.6c1,1.4,2.4,2,4.2,2s3.2-0.7,4.1-2.1c1-1.4,1.5-3.4,1.5-6
				c0-2.3-0.5-4.2-1.5-5.6c-1-1.4-2.4-2.1-4.1-2.1c-1.7,0-3.1,0.7-4.1,2C791.6,521.1,791.1,523.1,791.1,525.8z"/>
		</g>
		<g>
			<path class="st11" d="M86.9,520.3H74v9.6h15.1v4.3H68.5V503h20.5v4.4H74v8.6h13V520.3z"/>
			<path class="st11" d="M106.4,528c0-0.9-0.4-1.6-1.2-2.1c-0.8-0.5-2.1-0.9-3.8-1.3c-1.8-0.4-3.3-0.8-4.5-1.4
				c-2.6-1.3-3.9-3.1-3.9-5.5c0-2,0.9-3.7,2.6-5c1.7-1.3,3.9-2,6.5-2c2.8,0,5.1,0.7,6.8,2.1c1.7,1.4,2.6,3.2,2.6,5.3h-5.3
				c0-1-0.4-1.8-1.1-2.5c-0.8-0.7-1.7-1-3-1c-1.2,0-2.1,0.3-2.8,0.8c-0.7,0.5-1.1,1.2-1.1,2.1c0,0.8,0.3,1.4,1,1.9
				c0.7,0.4,2.1,0.9,4.1,1.3c2.1,0.5,3.7,1,4.9,1.6c1.2,0.6,2.1,1.4,2.6,2.2c0.6,0.9,0.9,1.9,0.9,3.2c0,2.1-0.9,3.8-2.6,5.1
				c-1.7,1.3-4,1.9-6.9,1.9c-1.9,0-3.6-0.3-5.1-1c-1.5-0.7-2.7-1.6-3.5-2.8s-1.3-2.5-1.3-3.9h5.1c0.1,1.2,0.5,2.2,1.4,2.8s2,1,3.4,1
				c1.4,0,2.4-0.3,3.2-0.8C106,529.5,106.4,528.8,106.4,528z"/>
			<path class="st11" d="M123,505.4v5.7h4.1v3.9H123v13c0,0.9,0.2,1.5,0.5,1.9c0.4,0.4,1,0.6,1.9,0.6c0.6,0,1.2-0.1,1.8-0.2v4
				c-1.2,0.3-2.4,0.5-3.5,0.5c-4,0-6.1-2.2-6.1-6.6v-13.2h-3.9V511h3.9v-5.7H123z"/>
			<path class="st11" d="M145.4,534.3c-0.2-0.4-0.4-1.2-0.6-2.2c-1.7,1.7-3.7,2.6-6.2,2.6c-2.4,0-4.3-0.7-5.8-2
				c-1.5-1.3-2.2-3-2.2-4.9c0-2.5,0.9-4.4,2.8-5.7c1.9-1.3,4.5-2,8-2h3.2v-1.5c0-1.2-0.3-2.2-1-2.9c-0.7-0.7-1.7-1.1-3.1-1.1
				c-1.2,0-2.2,0.3-2.9,0.9c-0.8,0.6-1.1,1.4-1.1,2.3h-5.3c0-1.3,0.4-2.5,1.3-3.6c0.9-1.1,2-2,3.5-2.6c1.5-0.6,3.1-0.9,4.9-0.9
				c2.7,0,4.9,0.7,6.6,2.1c1.6,1.4,2.5,3.3,2.5,5.8v10.5c0,2.1,0.3,3.8,0.9,5v0.4H145.4z M139.6,530.5c1,0,2-0.3,2.9-0.8
				c0.9-0.5,1.6-1.2,2.1-2v-4.4h-2.8c-1.9,0-3.4,0.3-4.4,1c-1,0.7-1.5,1.6-1.5,2.9c0,1,0.3,1.8,1,2.4
				C137.5,530.2,138.4,530.5,139.6,530.5z M142.5,501.3h6l-6,6.5l-4.2,0L142.5,501.3z"/>
			<path class="st11" d="M168.7,528c0-0.9-0.4-1.6-1.2-2.1c-0.8-0.5-2.1-0.9-3.8-1.3c-1.8-0.4-3.3-0.8-4.5-1.4
				c-2.6-1.3-3.9-3.1-3.9-5.5c0-2,0.9-3.7,2.6-5c1.7-1.3,3.9-2,6.5-2c2.8,0,5.1,0.7,6.8,2.1c1.7,1.4,2.6,3.2,2.6,5.3h-5.3
				c0-1-0.4-1.8-1.1-2.5c-0.8-0.7-1.7-1-3-1c-1.2,0-2.1,0.3-2.8,0.8c-0.7,0.5-1.1,1.2-1.1,2.1c0,0.8,0.3,1.4,1,1.9
				c0.7,0.4,2.1,0.9,4.1,1.3c2.1,0.5,3.7,1,4.9,1.6c1.2,0.6,2.1,1.4,2.6,2.2c0.6,0.9,0.9,1.9,0.9,3.2c0,2.1-0.9,3.8-2.6,5.1
				c-1.7,1.3-4,1.9-6.9,1.9c-1.9,0-3.6-0.3-5.1-1c-1.5-0.7-2.7-1.6-3.5-2.8s-1.3-2.5-1.3-3.9h5.1c0.1,1.2,0.5,2.2,1.4,2.8s2,1,3.4,1
				c1.4,0,2.4-0.3,3.2-0.8C168.3,529.5,168.7,528.8,168.7,528z"/>
			<path class="st11" d="M199.6,530.5c1.3,0,2.4-0.4,3.3-1.1c0.9-0.8,1.3-1.7,1.4-2.8h5c-0.1,1.4-0.5,2.8-1.4,4
				c-0.9,1.3-2,2.2-3.5,3c-1.5,0.7-3,1.1-4.7,1.1c-3.3,0-5.9-1.1-7.8-3.2c-1.9-2.1-2.9-5-2.9-8.7v-0.5c0-3.5,1-6.4,2.9-8.5
				c1.9-2.1,4.5-3.2,7.8-3.2c2.8,0,5.1,0.8,6.8,2.4s2.7,3.7,2.8,6.3h-5c-0.1-1.3-0.5-2.4-1.4-3.3c-0.9-0.9-2-1.3-3.3-1.3
				c-1.7,0-3,0.6-3.9,1.8c-0.9,1.2-1.4,3.1-1.4,5.6v0.8c0,2.5,0.5,4.4,1.4,5.6C196.5,529.9,197.8,530.5,199.6,530.5z"/>
			<path class="st11" d="M212.4,522.4c0-2.3,0.5-4.3,1.4-6.2s2.2-3.2,3.8-4.2c1.6-1,3.5-1.5,5.7-1.5c3.2,0,5.7,1,7.7,3
				c2,2,3,4.7,3.2,8l0,1.2c0,2.3-0.4,4.3-1.3,6.1c-0.9,1.8-2.2,3.2-3.8,4.2s-3.6,1.5-5.7,1.5c-3.3,0-6-1.1-7.9-3.3
				c-2-2.2-3-5.1-3-8.7V522.4z M217.7,522.9c0,2.4,0.5,4.3,1.5,5.6c1,1.4,2.4,2,4.2,2s3.2-0.7,4.1-2.1c1-1.4,1.5-3.4,1.5-6
				c0-2.3-0.5-4.2-1.5-5.6c-1-1.4-2.4-2.1-4.1-2.1c-1.7,0-3.1,0.7-4.1,2C218.2,518.2,217.7,520.2,217.7,522.9z"/>
			<path class="st11" d="M243.8,511l0.2,2.4c1.6-1.9,3.9-2.9,6.8-2.9c3.1,0,5.3,1.2,6.4,3.6c1.7-2.4,4.1-3.6,7.2-3.6
				c2.6,0,4.5,0.7,5.8,2.1s1.9,3.5,1.9,6.3v15.3h-5.3v-15.1c0-1.5-0.3-2.6-1-3.2c-0.6-0.7-1.7-1-3.2-1c-1.2,0-2.2,0.3-2.9,1
				c-0.8,0.6-1.3,1.5-1.6,2.5l0,15.9h-5.3V519c-0.1-2.7-1.5-4.1-4.2-4.1c-2.1,0-3.6,0.9-4.5,2.6v16.8h-5.3V511H243.8z"/>
			<path class="st11" d="M290.8,534.3v-19.4h-3.6V511h3.6v-2.1c0-2.6,0.7-4.6,2.2-6c1.4-1.4,3.5-2.1,6.1-2.1c0.9,0,1.9,0.1,2.9,0.4
				l-0.1,4.1c-0.6-0.1-1.2-0.2-2-0.2c-2.5,0-3.8,1.3-3.8,3.8v2.1h4.8v3.9h-4.8v19.4H290.8z"/>
			<path class="st11" d="M303.9,522.4c0-2.3,0.5-4.3,1.4-6.2s2.2-3.2,3.8-4.2c1.6-1,3.5-1.5,5.7-1.5c3.2,0,5.7,1,7.7,3
				c2,2,3,4.7,3.2,8l0,1.2c0,2.3-0.4,4.3-1.3,6.1c-0.9,1.8-2.2,3.2-3.8,4.2s-3.6,1.5-5.7,1.5c-3.3,0-6-1.1-7.9-3.3
				c-2-2.2-3-5.1-3-8.7V522.4z M309.2,522.9c0,2.4,0.5,4.3,1.5,5.6c1,1.4,2.4,2,4.2,2s3.2-0.7,4.1-2.1c1-1.4,1.5-3.4,1.5-6
				c0-2.3-0.5-4.2-1.5-5.6c-1-1.4-2.4-2.1-4.1-2.1c-1.7,0-3.1,0.7-4.1,2C309.7,518.2,309.2,520.2,309.2,522.9z"/>
			<path class="st11" d="M335.3,511l0.2,2.4c1.6-1.9,3.9-2.9,6.8-2.9c3.1,0,5.3,1.2,6.4,3.6c1.7-2.4,4.1-3.6,7.2-3.6
				c2.6,0,4.5,0.7,5.8,2.1s1.9,3.5,1.9,6.3v15.3h-5.3v-15.1c0-1.5-0.3-2.6-1-3.2c-0.6-0.7-1.7-1-3.2-1c-1.2,0-2.2,0.3-2.9,1
				c-0.8,0.6-1.3,1.5-1.6,2.5l0,15.9h-5.3V519c-0.1-2.7-1.5-4.1-4.2-4.1c-2.1,0-3.6,0.9-4.5,2.6v16.8h-5.3V511H335.3z"/>
			<path class="st11" d="M379.5,534.7c-3.3,0-6-1-8.1-3.1c-2.1-2.1-3.1-4.9-3.1-8.3v-0.6c0-2.3,0.5-4.4,1.4-6.2
				c0.9-1.8,2.2-3.2,3.8-4.3c1.6-1,3.5-1.5,5.5-1.5c3.2,0,5.7,1,7.4,3s2.6,4.9,2.6,8.6v2.1h-15.3c0.2,1.9,0.8,3.4,1.9,4.6
				c1.1,1.1,2.6,1.7,4.3,1.7c2.4,0,4.4-1,5.9-2.9l2.8,2.7c-0.9,1.4-2.2,2.5-3.8,3.2S381.5,534.7,379.5,534.7z M378.9,514.8
				c-1.4,0-2.6,0.5-3.5,1.5c-0.9,1-1.5,2.4-1.7,4.2h10v-0.4c-0.1-1.7-0.6-3.1-1.4-4C381.5,515.2,380.3,514.8,378.9,514.8z"/>
			<path class="st11" d="M398.1,525.1c0-1.9,0.2-3.4,0.7-4.6s1.4-2.4,2.8-3.7c1.4-1.4,2.3-2.3,2.7-2.9c0.6-0.9,0.9-1.8,0.9-2.8
				c0-1.3-0.3-2.4-1-3.1c-0.7-0.7-1.7-1.1-3-1.1c-1.2,0-2.2,0.3-3,1c-0.8,0.7-1.1,1.6-1.1,2.8h-5.3c0-2.5,0.9-4.5,2.6-6
				c1.7-1.5,4-2.2,6.8-2.2c2.9,0,5.2,0.7,6.8,2.2s2.4,3.5,2.4,6.1c0,2.3-1.1,4.6-3.3,6.9l-2.7,2.6c-1,1.1-1.4,2.6-1.5,4.7H398.1z
				 M397.7,531.8c0-0.8,0.3-1.5,0.8-2c0.5-0.5,1.3-0.8,2.2-0.8c0.9,0,1.7,0.3,2.2,0.8c0.5,0.5,0.8,1.2,0.8,2c0,0.8-0.3,1.4-0.8,2
				c-0.5,0.5-1.3,0.8-2.2,0.8c-1,0-1.7-0.3-2.2-0.8C398,533.2,397.7,532.6,397.7,531.8z"/>
			<path class="st11" d="M445.2,520.3h-13v9.6h15.1v4.3h-20.6V503h20.5v4.4h-15v8.6h13V520.3z"/>
			<path class="st11" d="M464.7,528c0-0.9-0.4-1.6-1.2-2.1c-0.8-0.5-2.1-0.9-3.8-1.3c-1.8-0.4-3.3-0.8-4.5-1.4
				c-2.6-1.3-3.9-3.1-3.9-5.5c0-2,0.9-3.7,2.6-5c1.7-1.3,3.9-2,6.5-2c2.8,0,5.1,0.7,6.8,2.1c1.7,1.4,2.6,3.2,2.6,5.3h-5.3
				c0-1-0.4-1.8-1.1-2.5c-0.8-0.7-1.7-1-3-1c-1.2,0-2.1,0.3-2.8,0.8c-0.7,0.5-1.1,1.2-1.1,2.1c0,0.8,0.3,1.4,1,1.9
				c0.7,0.4,2.1,0.9,4.1,1.3c2.1,0.5,3.7,1,4.9,1.6c1.2,0.6,2.1,1.4,2.6,2.2c0.6,0.9,0.9,1.9,0.9,3.2c0,2.1-0.9,3.8-2.6,5.1
				c-1.7,1.3-4,1.9-6.9,1.9c-1.9,0-3.6-0.3-5.1-1c-1.5-0.7-2.7-1.6-3.5-2.8s-1.3-2.5-1.3-3.9h5.1c0.1,1.2,0.5,2.2,1.4,2.8s2,1,3.4,1
				c1.4,0,2.4-0.3,3.2-0.8C464.4,529.5,464.7,528.8,464.7,528z"/>
			<path class="st11" d="M481.3,505.4v5.7h4.1v3.9h-4.1v13c0,0.9,0.2,1.5,0.5,1.9c0.4,0.4,1,0.6,1.9,0.6c0.6,0,1.2-0.1,1.8-0.2v4
				c-1.2,0.3-2.4,0.5-3.5,0.5c-4,0-6.1-2.2-6.1-6.6v-13.2h-3.9V511h3.9v-5.7H481.3z"/>
			<path class="st11" d="M503.7,534.3c-0.2-0.4-0.4-1.2-0.6-2.2c-1.7,1.7-3.7,2.6-6.2,2.6c-2.4,0-4.3-0.7-5.8-2
				c-1.5-1.3-2.2-3-2.2-4.9c0-2.5,0.9-4.4,2.8-5.7c1.9-1.3,4.5-2,8-2h3.2v-1.5c0-1.2-0.3-2.2-1-2.9c-0.7-0.7-1.7-1.1-3.1-1.1
				c-1.2,0-2.2,0.3-2.9,0.9c-0.8,0.6-1.1,1.4-1.1,2.3h-5.3c0-1.3,0.4-2.5,1.3-3.6c0.9-1.1,2-2,3.5-2.6c1.5-0.6,3.1-0.9,4.9-0.9
				c2.7,0,4.9,0.7,6.6,2.1c1.6,1.4,2.5,3.3,2.5,5.8v10.5c0,2.1,0.3,3.8,0.9,5v0.4H503.7z M497.9,530.5c1,0,2-0.3,2.9-0.8
				c0.9-0.5,1.6-1.2,2.1-2v-4.4h-2.8c-1.9,0-3.4,0.3-4.4,1c-1,0.7-1.5,1.6-1.5,2.9c0,1,0.3,1.8,1,2.4
				C495.9,530.2,496.8,530.5,497.9,530.5z M500.8,501.3h6l-6,6.5l-4.2,0L500.8,501.3z"/>
			<path class="st11" d="M527,528c0-0.9-0.4-1.6-1.2-2.1c-0.8-0.5-2.1-0.9-3.8-1.3c-1.8-0.4-3.3-0.8-4.5-1.4
				c-2.6-1.3-3.9-3.1-3.9-5.5c0-2,0.9-3.7,2.6-5c1.7-1.3,3.9-2,6.5-2c2.8,0,5.1,0.7,6.8,2.1c1.7,1.4,2.6,3.2,2.6,5.3h-5.3
				c0-1-0.4-1.8-1.1-2.5c-0.8-0.7-1.7-1-3-1c-1.2,0-2.1,0.3-2.8,0.8c-0.7,0.5-1.1,1.2-1.1,2.1c0,0.8,0.3,1.4,1,1.9
				c0.7,0.4,2.1,0.9,4.1,1.3c2.1,0.5,3.7,1,4.9,1.6c1.2,0.6,2.1,1.4,2.6,2.2c0.6,0.9,0.9,1.9,0.9,3.2c0,2.1-0.9,3.8-2.6,5.1
				c-1.7,1.3-4,1.9-6.9,1.9c-1.9,0-3.6-0.3-5.1-1c-1.5-0.7-2.7-1.6-3.5-2.8s-1.3-2.5-1.3-3.9h5.1c0.1,1.2,0.5,2.2,1.4,2.8s2,1,3.4,1
				c1.4,0,2.4-0.3,3.2-0.8C526.7,529.5,527,528.8,527,528z"/>
			<path class="st11" d="M553.2,511l0.2,2.7c1.7-2.1,4-3.1,6.8-3.1c4.9,0,7.4,2.8,7.5,8.3v15.4h-5.3v-15.1c0-1.5-0.3-2.6-1-3.3
				c-0.6-0.7-1.7-1.1-3.2-1.1c-2.1,0-3.7,1-4.7,2.9v16.5h-5.3V511H553.2z"/>
			<path class="st11" d="M572.2,522.4c0-2.3,0.5-4.3,1.4-6.2s2.2-3.2,3.8-4.2c1.6-1,3.5-1.5,5.7-1.5c3.2,0,5.7,1,7.7,3
				c2,2,3,4.7,3.2,8l0,1.2c0,2.3-0.4,4.3-1.3,6.1c-0.9,1.8-2.2,3.2-3.8,4.2s-3.6,1.5-5.7,1.5c-3.3,0-6-1.1-7.9-3.3
				c-2-2.2-3-5.1-3-8.7V522.4z M577.4,522.9c0,2.4,0.5,4.3,1.5,5.6c1,1.4,2.4,2,4.2,2s3.2-0.7,4.1-2.1c1-1.4,1.5-3.4,1.5-6
				c0-2.3-0.5-4.2-1.5-5.6c-1-1.4-2.4-2.1-4.1-2.1c-1.7,0-3.1,0.7-4.1,2C577.9,518.2,577.4,520.2,577.4,522.9z"/>
			<path class="st11" d="M623,528c0-0.9-0.4-1.6-1.2-2.1c-0.8-0.5-2.1-0.9-3.8-1.3c-1.8-0.4-3.3-0.8-4.5-1.4
				c-2.6-1.3-3.9-3.1-3.9-5.5c0-2,0.9-3.7,2.6-5c1.7-1.3,3.9-2,6.5-2c2.8,0,5.1,0.7,6.8,2.1c1.7,1.4,2.6,3.2,2.6,5.3h-5.3
				c0-1-0.4-1.8-1.1-2.5c-0.8-0.7-1.7-1-3-1c-1.2,0-2.1,0.3-2.8,0.8c-0.7,0.5-1.1,1.2-1.1,2.1c0,0.8,0.3,1.4,1,1.9
				c0.7,0.4,2.1,0.9,4.1,1.3c2.1,0.5,3.7,1,4.9,1.6c1.2,0.6,2.1,1.4,2.6,2.2c0.6,0.9,0.9,1.9,0.9,3.2c0,2.1-0.9,3.8-2.6,5.1
				c-1.7,1.3-4,1.9-6.9,1.9c-1.9,0-3.6-0.3-5.1-1c-1.5-0.7-2.7-1.6-3.5-2.8s-1.3-2.5-1.3-3.9h5.1c0.1,1.2,0.5,2.2,1.4,2.8s2,1,3.4,1
				c1.4,0,2.4-0.3,3.2-0.8C622.7,529.5,623,528.8,623,528z"/>
			<path class="st11" d="M638.7,534.3h-5.3V511h5.3V534.3z M637.7,501.4h6l-6,6.5l-4.2,0L637.7,501.4z"/>
			<path class="st11" d="M651.5,505.4v5.7h4.1v3.9h-4.1v13c0,0.9,0.2,1.5,0.5,1.9c0.4,0.4,1,0.6,1.9,0.6c0.6,0,1.2-0.1,1.8-0.2v4
				c-1.2,0.3-2.4,0.5-3.5,0.5c-4,0-6.1-2.2-6.1-6.6v-13.2h-3.9V511h3.9v-5.7H651.5z"/>
			<path class="st11" d="M659.9,505c0-0.8,0.3-1.5,0.8-2c0.5-0.5,1.2-0.8,2.2-0.8c1,0,1.7,0.3,2.2,0.8c0.5,0.5,0.8,1.2,0.8,2
				c0,0.8-0.3,1.4-0.8,2c-0.5,0.5-1.3,0.8-2.2,0.8c-1,0-1.7-0.3-2.2-0.8C660.1,506.4,659.9,505.8,659.9,505z M665.5,534.3h-5.3V511
				h5.3V534.3z"/>
			<path class="st11" d="M670.4,522.4c0-2.3,0.5-4.3,1.4-6.2s2.2-3.2,3.8-4.2c1.6-1,3.5-1.5,5.7-1.5c3.2,0,5.7,1,7.7,3
				c2,2,3,4.7,3.2,8l0,1.2c0,2.3-0.4,4.3-1.3,6.1c-0.9,1.8-2.2,3.2-3.8,4.2s-3.6,1.5-5.7,1.5c-3.3,0-6-1.1-7.9-3.3
				c-2-2.2-3-5.1-3-8.7V522.4z M675.7,522.9c0,2.4,0.5,4.3,1.5,5.6c1,1.4,2.4,2,4.2,2s3.2-0.7,4.1-2.1c1-1.4,1.5-3.4,1.5-6
				c0-2.3-0.5-4.2-1.5-5.6c-1-1.4-2.4-2.1-4.1-2.1c-1.7,0-3.1,0.7-4.1,2C676.2,518.2,675.7,520.2,675.7,522.9z"/>
			<path class="st11" d="M717.8,530.5c1.3,0,2.4-0.4,3.3-1.1c0.9-0.8,1.3-1.7,1.4-2.8h5c-0.1,1.4-0.5,2.8-1.4,4
				c-0.9,1.3-2,2.2-3.5,3c-1.5,0.7-3,1.1-4.7,1.1c-3.3,0-5.9-1.1-7.8-3.2c-1.9-2.1-2.9-5-2.9-8.7v-0.5c0-3.5,1-6.4,2.9-8.5
				c1.9-2.1,4.5-3.2,7.8-3.2c2.8,0,5.1,0.8,6.8,2.4s2.7,3.7,2.8,6.3h-5c-0.1-1.3-0.5-2.4-1.4-3.3c-0.9-0.9-2-1.3-3.3-1.3
				c-1.7,0-3,0.6-3.9,1.8c-0.9,1.2-1.4,3.1-1.4,5.6v0.8c0,2.5,0.5,4.4,1.4,5.6C714.7,529.9,716,530.5,717.8,530.5z"/>
			<path class="st11" d="M741.9,534.7c-3.3,0-6-1-8.1-3.1c-2.1-2.1-3.1-4.9-3.1-8.3v-0.6c0-2.3,0.5-4.4,1.4-6.2
				c0.9-1.8,2.2-3.2,3.8-4.3c1.6-1,3.5-1.5,5.5-1.5c3.2,0,5.7,1,7.4,3s2.6,4.9,2.6,8.6v2.1H736c0.2,1.9,0.8,3.4,1.9,4.6
				c1.1,1.1,2.6,1.7,4.3,1.7c2.4,0,4.4-1,5.9-2.9l2.8,2.7c-0.9,1.4-2.2,2.5-3.8,3.2S743.9,534.7,741.9,534.7z M741.3,514.8
				c-1.4,0-2.6,0.5-3.5,1.5c-0.9,1-1.5,2.4-1.7,4.2h10v-0.4c-0.1-1.7-0.6-3.1-1.4-4C743.9,515.2,742.7,514.8,741.3,514.8z"/>
			<path class="st11" d="M767.9,515.8c-0.7-0.1-1.4-0.2-2.1-0.2c-2.4,0-4,0.9-4.9,2.8v15.9h-5.3V511h5l0.1,2.6c1.3-2,3-3,5.3-3
				c0.8,0,1.4,0.1,1.9,0.3L767.9,515.8z"/>
			<path class="st11" d="M779.1,505.4v5.7h4.1v3.9h-4.1v13c0,0.9,0.2,1.5,0.5,1.9c0.4,0.4,1,0.6,1.9,0.6c0.6,0,1.2-0.1,1.8-0.2v4
				c-1.2,0.3-2.4,0.5-3.5,0.5c-4,0-6.1-2.2-6.1-6.6v-13.2H770V511h3.9v-5.7H779.1z"/>
			<path class="st11" d="M785.9,522.4c0-2.3,0.5-4.3,1.4-6.2s2.2-3.2,3.8-4.2c1.6-1,3.5-1.5,5.7-1.5c3.2,0,5.7,1,7.7,3
				c2,2,3,4.7,3.2,8l0,1.2c0,2.3-0.4,4.3-1.3,6.1c-0.9,1.8-2.2,3.2-3.8,4.2s-3.6,1.5-5.7,1.5c-3.3,0-6-1.1-7.9-3.3
				c-2-2.2-3-5.1-3-8.7V522.4z M791.1,522.9c0,2.4,0.5,4.3,1.5,5.6c1,1.4,2.4,2,4.2,2s3.2-0.7,4.1-2.1c1-1.4,1.5-3.4,1.5-6
				c0-2.3-0.5-4.2-1.5-5.6c-1-1.4-2.4-2.1-4.1-2.1c-1.7,0-3.1,0.7-4.1,2C791.6,518.2,791.1,520.2,791.1,522.9z"/>
		</g>
	</g>
</g>
<g id="Placa_cima">
	<g>
		<path class="st16" d="M658.7,444.4H251.9c-12,0-21.8-11-21.8-24.5V247.2c0-13.5,9.7-24.5,21.8-24.5h406.8c12,0,21.8,11,21.8,24.5
			v172.7C680.4,433.4,670.7,444.4,658.7,444.4z"/>
		<path class="st17" d="M651.3,432H244.5c-12,0-21.8-11-21.8-24.5V234.8c0-13.5,9.7-24.5,21.8-24.5h406.8c12,0,21.8,11,21.8,24.5
			v172.7C673,421,663.3,432,651.3,432z"/>
		<g>
			<path class="st18" d="M286.9,360.7h-14.8v-71.1h14.8V360.7z"/>
			<path class="st18" d="M359.9,360.7h-14.8l-28.7-46.8v46.8h-14.8v-71.1h14.8l28.8,46.9v-46.9h14.7V360.7z"/>
			<path class="st18" d="M416.9,331.6h-28.4v29.1h-14.8v-71.1h46.7v11.9h-31.9v18.4h28.4V331.6z"/>
			<path class="st18" d="M488.9,326.7c0,7-1.2,13.1-3.7,18.4c-2.5,5.3-6.1,9.3-10.7,12.2c-4.6,2.9-10,4.3-16,4.3
				c-5.9,0-11.2-1.4-15.9-4.2c-4.7-2.8-8.3-6.9-10.8-12.1c-2.6-5.3-3.9-11.3-3.9-18.1v-3.5c0-7,1.3-13.2,3.8-18.5
				c2.5-5.3,6.1-9.4,10.8-12.3c4.6-2.8,10-4.3,15.9-4.3c6,0,11.3,1.4,15.9,4.3c4.6,2.8,8.2,6.9,10.8,12.3c2.5,5.3,3.8,11.5,3.8,18.4
				V326.7z M473.9,323.5c0-7.5-1.3-13.1-4-17c-2.7-3.9-6.5-5.8-11.5-5.8c-5,0-8.8,1.9-11.5,5.7c-2.7,3.8-4.1,9.4-4.1,16.8v3.5
				c0,7.3,1.3,12.9,4,16.9c2.7,4,6.6,6,11.6,6c5,0,8.8-1.9,11.4-5.8c2.7-3.9,4-9.5,4-16.9V323.5z"/>
			<path class="st18" d="M559.5,326.7c0,7-1.2,13.1-3.7,18.4c-2.5,5.3-6.1,9.3-10.7,12.2c-4.6,2.9-10,4.3-16,4.3
				c-5.9,0-11.2-1.4-15.9-4.2c-4.7-2.8-8.3-6.9-10.8-12.1c-2.6-5.3-3.9-11.3-3.9-18.1v-3.5c0-7,1.3-13.2,3.8-18.5
				c2.5-5.3,6.1-9.4,10.8-12.3c4.6-2.8,10-4.3,15.9-4.3c6,0,11.3,1.4,15.9,4.3c4.6,2.8,8.2,6.9,10.8,12.3c2.5,5.3,3.8,11.5,3.8,18.4
				V326.7z M544.6,323.5c0-7.5-1.3-13.1-4-17c-2.7-3.9-6.5-5.8-11.5-5.8c-5,0-8.8,1.9-11.5,5.7c-2.7,3.8-4.1,9.4-4.1,16.8v3.5
				c0,7.3,1.3,12.9,4,16.9c2.7,4,6.6,6,11.6,6c5,0,8.8-1.9,11.4-5.8c2.7-3.9,4-9.5,4-16.9V323.5z"/>
			<path class="st18" d="M571.3,360.7v-71.1h22.1c6.3,0,11.9,1.4,16.9,4.2c5,2.8,8.9,6.8,11.6,12c2.8,5.2,4.2,11.1,4.2,17.7v3.3
				c0,6.6-1.4,12.5-4.1,17.6c-2.7,5.1-6.6,9.1-11.6,12c-5,2.8-10.6,4.3-16.9,4.3H571.3z M586,301.4v47.5h7.1
				c5.8,0,10.2-1.9,13.2-5.6c3.1-3.7,4.6-9.1,4.7-16.1v-3.8c0-7.2-1.5-12.7-4.5-16.4c-3-3.7-7.4-5.6-13.2-5.6H586z"/>
		</g>
		<g>
			<path class="st11" d="M287.2,355.2h-14.8v-71.1h14.8V355.2z"/>
			<path class="st11" d="M360.2,355.2h-14.8l-28.7-46.8v46.8h-14.8v-71.1h14.8l28.8,46.9v-46.9h14.7V355.2z"/>
			<path class="st11" d="M417.2,326.1h-28.4v29.1h-14.8v-71.1h46.7v11.9h-31.9v18.4h28.4V326.1z"/>
			<path class="st11" d="M489.2,321.2c0,7-1.2,13.1-3.7,18.4c-2.5,5.3-6.1,9.3-10.7,12.2c-4.6,2.9-10,4.3-16,4.3
				c-5.9,0-11.2-1.4-15.9-4.2c-4.7-2.8-8.3-6.9-10.8-12.1c-2.6-5.3-3.9-11.3-3.9-18.1v-3.5c0-7,1.3-13.2,3.8-18.5
				c2.5-5.3,6.1-9.4,10.8-12.3c4.6-2.8,10-4.3,15.9-4.3c6,0,11.3,1.4,15.9,4.3c4.6,2.8,8.2,6.9,10.8,12.3c2.5,5.3,3.8,11.5,3.8,18.4
				V321.2z M474.2,318c0-7.5-1.3-13.1-4-17c-2.7-3.9-6.5-5.8-11.5-5.8c-5,0-8.8,1.9-11.5,5.7c-2.7,3.8-4.1,9.4-4.1,16.8v3.5
				c0,7.3,1.3,12.9,4,16.9c2.7,4,6.6,6,11.6,6c5,0,8.8-1.9,11.4-5.8c2.7-3.9,4-9.5,4-16.9V318z"/>
			<path class="st11" d="M559.8,321.2c0,7-1.2,13.1-3.7,18.4c-2.5,5.3-6.1,9.3-10.7,12.2c-4.6,2.9-10,4.3-16,4.3
				c-5.9,0-11.2-1.4-15.9-4.2c-4.7-2.8-8.3-6.9-10.8-12.1c-2.6-5.3-3.9-11.3-3.9-18.1v-3.5c0-7,1.3-13.2,3.8-18.5
				c2.5-5.3,6.1-9.4,10.8-12.3c4.6-2.8,10-4.3,15.9-4.3c6,0,11.3,1.4,15.9,4.3c4.6,2.8,8.2,6.9,10.8,12.3c2.5,5.3,3.8,11.5,3.8,18.4
				V321.2z M544.9,318c0-7.5-1.3-13.1-4-17c-2.7-3.9-6.5-5.8-11.5-5.8c-5,0-8.8,1.9-11.5,5.7c-2.7,3.8-4.1,9.4-4.1,16.8v3.5
				c0,7.3,1.3,12.9,4,16.9c2.7,4,6.6,6,11.6,6c5,0,8.8-1.9,11.4-5.8c2.7-3.9,4-9.5,4-16.9V318z"/>
			<path class="st11" d="M571.6,355.2v-71.1h22.1c6.3,0,11.9,1.4,16.9,4.2c5,2.8,8.9,6.8,11.6,12c2.8,5.2,4.2,11.1,4.2,17.7v3.3
				c0,6.6-1.4,12.5-4.1,17.6c-2.7,5.1-6.6,9.1-11.6,12c-5,2.8-10.6,4.3-16.9,4.3H571.6z M586.3,295.9v47.5h7.1
				c5.8,0,10.2-1.9,13.2-5.6c3.1-3.7,4.6-9.1,4.7-16.1v-3.8c0-7.2-1.5-12.7-4.5-16.4c-3-3.7-7.4-5.6-13.2-5.6H586.3z"/>
		</g>
	</g>
</g>
</svg>
